<svg width="32" height="32" viewBox="0 0 32 32" fill="none" xmlns="http://www.w3.org/2000/svg">
<path d="M24.2667 10.6842H7.73226C7.63247 10.684 7.53364 10.7036 7.44142 10.7417C7.34919 10.7798 7.26539 10.8357 7.1948 10.9063C7.12421 10.9768 7.06822 11.0605 7.03003 11.1527C6.99185 11.2449 6.97221 11.3437 6.97226 11.4435V27.4074C6.97221 27.5072 6.99184 27.6061 7.03001 27.6983C7.06818 27.7906 7.12415 27.8744 7.19472 27.9451C7.26529 28.0157 7.34909 28.0718 7.44132 28.11C7.53355 28.1483 7.63241 28.168 7.73226 28.168H24.2667C24.3665 28.168 24.4654 28.1484 24.5577 28.1102C24.65 28.072 24.7338 28.0159 24.8044 27.9453C24.875 27.8746 24.9309 27.7907 24.9691 27.6984C25.0072 27.6061 25.0268 27.5072 25.0267 27.4074V11.4432C25.0267 11.3434 25.0071 11.2446 24.969 11.1524C24.9308 11.0602 24.8748 10.9765 24.8042 10.906C24.7336 10.8354 24.6498 10.7796 24.5575 10.7415C24.4653 10.7034 24.3664 10.684 24.2667 10.6842V10.6842ZM25.2811 5.55264H19.0084V4.59296C19.0086 4.49313 18.9891 4.39425 18.951 4.30197C18.9129 4.2097 18.857 4.12583 18.7865 4.05518C18.7159 3.98454 18.6322 3.92849 18.5399 3.89025C18.4477 3.852 18.3489 3.83232 18.2491 3.83232H13.7505C13.6506 3.83232 13.5518 3.852 13.4595 3.89023C13.3673 3.92847 13.2834 3.98451 13.2129 4.05515C13.1423 4.12579 13.0863 4.20964 13.0482 4.30193C13.01 4.39421 12.9904 4.4931 12.9905 4.59296V5.55264H6.7185C6.61871 5.55251 6.51988 5.57207 6.42766 5.61017C6.33543 5.64828 6.25163 5.7042 6.18104 5.77473C6.11045 5.84526 6.05446 5.92902 6.01627 6.02121C5.97809 6.1134 5.95845 6.21221 5.9585 6.312V8.53024C5.95845 8.63003 5.97809 8.72884 6.01627 8.82103C6.05446 8.91322 6.11045 8.99698 6.18104 9.06751C6.25163 9.13804 6.33543 9.19396 6.42766 9.23207C6.51988 9.27018 6.61871 9.28973 6.7185 9.2896H25.2811C25.3809 9.28981 25.4797 9.27032 25.572 9.23224C25.6643 9.19416 25.7481 9.13824 25.8187 9.0677C25.8893 8.99715 25.9453 8.91336 25.9835 8.82113C26.0216 8.7289 26.0412 8.63005 26.0411 8.53024V6.312C26.0412 6.21219 26.0216 6.11334 25.9835 6.02111C25.9453 5.92888 25.8893 5.84509 25.8187 5.77454C25.7481 5.704 25.6643 5.64808 25.572 5.61C25.4797 5.57192 25.3809 5.55243 25.2811 5.55264V5.55264Z" fill="white"/>
</svg>
